<mxfile host="Electron" modified="2023-04-20T21:04:16.935Z" agent="Mozilla/5.0 (Windows NT 10.0; Win64; x64) AppleWebKit/537.36 (KHTML, like Gecko) draw.io/21.1.2 Chrome/106.0.5249.199 Electron/21.4.3 Safari/537.36" etag="zpUgCNDdA7fads_8QPq6" version="21.1.2" type="device">
  <diagram id="VnuXmWLjSKDz6pkJLCQi" name="Page-1">
    <mxGraphModel dx="1036" dy="606" grid="1" gridSize="10" guides="1" tooltips="1" connect="1" arrows="1" fold="1" page="1" pageScale="1" pageWidth="827" pageHeight="1169" math="0" shadow="0">
      <root>
        <mxCell id="0" />
        <mxCell id="1" parent="0" />
        <mxCell id="gHTXFpYsCy3y76UQldaq-1" value="C1" style="ellipse;whiteSpace=wrap;html=1;aspect=fixed;" parent="1" vertex="1">
          <mxGeometry x="370" y="230" width="80" height="80" as="geometry" />
        </mxCell>
        <mxCell id="gHTXFpYsCy3y76UQldaq-2" value="C2" style="ellipse;whiteSpace=wrap;html=1;aspect=fixed;" parent="1" vertex="1">
          <mxGeometry x="370" y="330" width="80" height="80" as="geometry" />
        </mxCell>
        <mxCell id="gHTXFpYsCy3y76UQldaq-3" value="C3" style="ellipse;whiteSpace=wrap;html=1;aspect=fixed;" parent="1" vertex="1">
          <mxGeometry x="370" y="430" width="80" height="80" as="geometry" />
        </mxCell>
        <mxCell id="gHTXFpYsCy3y76UQldaq-4" value="C4" style="ellipse;whiteSpace=wrap;html=1;aspect=fixed;" parent="1" vertex="1">
          <mxGeometry x="370" y="530" width="80" height="80" as="geometry" />
        </mxCell>
        <mxCell id="gHTXFpYsCy3y76UQldaq-9" value="&lt;div style=&quot;&quot;&gt;C1: new grade &amp;lt; 0 or new grade &amp;gt; 100&lt;/div&gt;&lt;div style=&quot;&quot;&gt;C2: sem &amp;lt;= 0 or sem &amp;gt; 2&lt;br&gt;C3: subject length == 0&lt;/div&gt;&lt;div style=&quot;&quot;&gt;C4: grade exists&lt;/div&gt;&lt;div style=&quot;&quot;&gt;C5: replace is true&lt;/div&gt;" style="rounded=0;whiteSpace=wrap;html=1;labelBackgroundColor=#80FF00;fillColor=#80FF00;align=left;" parent="1" vertex="1">
          <mxGeometry x="200" y="50" width="230" height="100" as="geometry" />
        </mxCell>
        <mxCell id="gHTXFpYsCy3y76UQldaq-12" value="Ef1: Error grade&lt;br&gt;Ef2: Error semester&lt;br&gt;Ef3: Error subject&lt;br&gt;Ef4: insert grade&lt;br&gt;Ef 5: Error grade exists" style="rounded=0;whiteSpace=wrap;html=1;labelBackgroundColor=none;fillColor=none;" parent="1" vertex="1">
          <mxGeometry x="440" y="50" width="250" height="100" as="geometry" />
        </mxCell>
        <mxCell id="gHTXFpYsCy3y76UQldaq-13" value="Ef1" style="ellipse;whiteSpace=wrap;html=1;aspect=fixed;" parent="1" vertex="1">
          <mxGeometry x="1690" y="200" width="80" height="80" as="geometry" />
        </mxCell>
        <mxCell id="gHTXFpYsCy3y76UQldaq-14" value="Ef2" style="ellipse;whiteSpace=wrap;html=1;aspect=fixed;" parent="1" vertex="1">
          <mxGeometry x="1700" y="310" width="80" height="80" as="geometry" />
        </mxCell>
        <mxCell id="gHTXFpYsCy3y76UQldaq-15" value="Ef3" style="ellipse;whiteSpace=wrap;html=1;aspect=fixed;" parent="1" vertex="1">
          <mxGeometry x="1700" y="400" width="80" height="80" as="geometry" />
        </mxCell>
        <mxCell id="gHTXFpYsCy3y76UQldaq-16" value="Ef4" style="ellipse;whiteSpace=wrap;html=1;aspect=fixed;" parent="1" vertex="1">
          <mxGeometry x="1700" y="494.5" width="80" height="80" as="geometry" />
        </mxCell>
        <mxCell id="gHTXFpYsCy3y76UQldaq-17" value="Ef5" style="ellipse;whiteSpace=wrap;html=1;aspect=fixed;" parent="1" vertex="1">
          <mxGeometry x="1700" y="590" width="80" height="80" as="geometry" />
        </mxCell>
        <mxCell id="gHTXFpYsCy3y76UQldaq-24" value="" style="endArrow=none;html=1;rounded=0;exitX=1;exitY=0.5;exitDx=0;exitDy=0;entryX=0;entryY=0.5;entryDx=0;entryDy=0;" parent="1" source="gHTXFpYsCy3y76UQldaq-1" target="gHTXFpYsCy3y76UQldaq-26" edge="1">
          <mxGeometry width="50" height="50" relative="1" as="geometry">
            <mxPoint x="480" y="420" as="sourcePoint" />
            <mxPoint x="640" y="300" as="targetPoint" />
          </mxGeometry>
        </mxCell>
        <mxCell id="gHTXFpYsCy3y76UQldaq-26" value="&lt;font style=&quot;font-size: 24px;&quot;&gt;1&lt;/font&gt;" style="ellipse;whiteSpace=wrap;html=1;aspect=fixed;labelBackgroundColor=none;fillColor=none;" parent="1" vertex="1">
          <mxGeometry x="690" y="300" width="60" height="60" as="geometry" />
        </mxCell>
        <mxCell id="gHTXFpYsCy3y76UQldaq-27" value="" style="curved=1;endArrow=none;html=1;rounded=0;endFill=0;" parent="1" edge="1">
          <mxGeometry width="50" height="50" relative="1" as="geometry">
            <mxPoint x="470" y="285" as="sourcePoint" />
            <mxPoint x="610" y="325" as="targetPoint" />
            <Array as="points">
              <mxPoint x="477" y="335" />
              <mxPoint x="540" y="315" />
              <mxPoint x="590" y="275" />
              <mxPoint x="610" y="295" />
            </Array>
          </mxGeometry>
        </mxCell>
        <mxCell id="gHTXFpYsCy3y76UQldaq-30" value="" style="endArrow=none;html=1;rounded=0;entryX=0;entryY=1;entryDx=0;entryDy=0;exitX=1;exitY=0.5;exitDx=0;exitDy=0;" parent="1" source="gHTXFpYsCy3y76UQldaq-2" target="gHTXFpYsCy3y76UQldaq-26" edge="1">
          <mxGeometry width="50" height="50" relative="1" as="geometry">
            <mxPoint x="480" y="420" as="sourcePoint" />
            <mxPoint x="530" y="370" as="targetPoint" />
          </mxGeometry>
        </mxCell>
        <mxCell id="gHTXFpYsCy3y76UQldaq-31" value="" style="curved=1;endArrow=none;html=1;rounded=0;endFill=0;" parent="1" edge="1">
          <mxGeometry width="50" height="50" relative="1" as="geometry">
            <mxPoint x="460" y="340" as="sourcePoint" />
            <mxPoint x="600" y="380" as="targetPoint" />
            <Array as="points">
              <mxPoint x="467" y="390" />
              <mxPoint x="530" y="370" />
              <mxPoint x="580" y="330" />
              <mxPoint x="600" y="350" />
            </Array>
          </mxGeometry>
        </mxCell>
        <mxCell id="gHTXFpYsCy3y76UQldaq-34" value="" style="endArrow=none;html=1;rounded=0;fontSize=24;exitX=1;exitY=0.5;exitDx=0;exitDy=0;entryX=0;entryY=0.5;entryDx=0;entryDy=0;" parent="1" source="gHTXFpYsCy3y76UQldaq-3" target="gHTXFpYsCy3y76UQldaq-36" edge="1">
          <mxGeometry width="50" height="50" relative="1" as="geometry">
            <mxPoint x="610" y="420" as="sourcePoint" />
            <mxPoint x="860" y="460" as="targetPoint" />
          </mxGeometry>
        </mxCell>
        <mxCell id="gHTXFpYsCy3y76UQldaq-35" value="" style="curved=1;endArrow=none;html=1;rounded=0;endFill=0;" parent="1" edge="1">
          <mxGeometry width="50" height="50" relative="1" as="geometry">
            <mxPoint x="545" y="430" as="sourcePoint" />
            <mxPoint x="685" y="470" as="targetPoint" />
            <Array as="points">
              <mxPoint x="552" y="480" />
              <mxPoint x="615" y="460" />
              <mxPoint x="665" y="420" />
              <mxPoint x="685" y="440" />
            </Array>
          </mxGeometry>
        </mxCell>
        <mxCell id="gHTXFpYsCy3y76UQldaq-36" value="2" style="ellipse;whiteSpace=wrap;html=1;aspect=fixed;labelBackgroundColor=none;fontSize=24;fillColor=none;" parent="1" vertex="1">
          <mxGeometry x="910" y="396.5" width="57" height="57" as="geometry" />
        </mxCell>
        <mxCell id="gHTXFpYsCy3y76UQldaq-37" value="C5" style="ellipse;whiteSpace=wrap;html=1;aspect=fixed;" parent="1" vertex="1">
          <mxGeometry x="370" y="630" width="80" height="80" as="geometry" />
        </mxCell>
        <mxCell id="gHTXFpYsCy3y76UQldaq-38" value="" style="endArrow=none;html=1;rounded=0;fontSize=24;entryX=0;entryY=0.5;entryDx=0;entryDy=0;" parent="1" source="gHTXFpYsCy3y76UQldaq-26" target="gHTXFpYsCy3y76UQldaq-36" edge="1">
          <mxGeometry width="50" height="50" relative="1" as="geometry">
            <mxPoint x="880" y="420" as="sourcePoint" />
            <mxPoint x="930" y="370" as="targetPoint" />
          </mxGeometry>
        </mxCell>
        <mxCell id="gHTXFpYsCy3y76UQldaq-40" value="" style="endArrow=none;html=1;rounded=0;fontSize=24;exitX=1;exitY=0.5;exitDx=0;exitDy=0;entryX=0;entryY=0.5;entryDx=0;entryDy=0;" parent="1" source="gHTXFpYsCy3y76UQldaq-4" target="gHTXFpYsCy3y76UQldaq-42" edge="1">
          <mxGeometry width="50" height="50" relative="1" as="geometry">
            <mxPoint x="520" y="500" as="sourcePoint" />
            <mxPoint x="700" y="560" as="targetPoint" />
          </mxGeometry>
        </mxCell>
        <mxCell id="gHTXFpYsCy3y76UQldaq-41" value="" style="endArrow=none;html=1;rounded=0;fontSize=24;exitX=1.025;exitY=0.63;exitDx=0;exitDy=0;exitPerimeter=0;entryX=0.042;entryY=0.682;entryDx=0;entryDy=0;entryPerimeter=0;" parent="1" source="gHTXFpYsCy3y76UQldaq-37" target="gHTXFpYsCy3y76UQldaq-42" edge="1">
          <mxGeometry width="50" height="50" relative="1" as="geometry">
            <mxPoint x="500" y="670" as="sourcePoint" />
            <mxPoint x="700" y="590" as="targetPoint" />
          </mxGeometry>
        </mxCell>
        <mxCell id="gHTXFpYsCy3y76UQldaq-42" value="&lt;font style=&quot;font-size: 24px;&quot;&gt;4&lt;/font&gt;" style="ellipse;whiteSpace=wrap;html=1;aspect=fixed;labelBackgroundColor=none;fillColor=none;" parent="1" vertex="1">
          <mxGeometry x="550" y="600" width="80" height="80" as="geometry" />
        </mxCell>
        <mxCell id="gHTXFpYsCy3y76UQldaq-43" value="V" style="text;html=1;align=center;verticalAlign=middle;resizable=0;points=[];autosize=1;strokeColor=none;fillColor=none;fontSize=24;fontStyle=1" parent="1" vertex="1">
          <mxGeometry x="1040" y="640" width="30" height="30" as="geometry" />
        </mxCell>
        <mxCell id="gHTXFpYsCy3y76UQldaq-45" value="&lt;font style=&quot;font-size: 24px;&quot;&gt;3&lt;/font&gt;" style="ellipse;whiteSpace=wrap;html=1;aspect=fixed;labelBackgroundColor=none;fillColor=none;" parent="1" vertex="1">
          <mxGeometry x="690" y="510" width="80" height="80" as="geometry" />
        </mxCell>
        <mxCell id="gHTXFpYsCy3y76UQldaq-46" value="" style="endArrow=none;html=1;rounded=0;fontSize=24;exitX=1;exitY=0.5;exitDx=0;exitDy=0;entryX=0;entryY=0.5;entryDx=0;entryDy=0;" parent="1" source="gHTXFpYsCy3y76UQldaq-4" target="gHTXFpYsCy3y76UQldaq-45" edge="1">
          <mxGeometry width="50" height="50" relative="1" as="geometry">
            <mxPoint x="830" y="500" as="sourcePoint" />
            <mxPoint x="880" y="450" as="targetPoint" />
          </mxGeometry>
        </mxCell>
        <mxCell id="gHTXFpYsCy3y76UQldaq-47" value="" style="curved=1;endArrow=none;html=1;rounded=0;endFill=0;" parent="1" edge="1">
          <mxGeometry width="50" height="50" relative="1" as="geometry">
            <mxPoint x="510" y="535" as="sourcePoint" />
            <mxPoint x="650" y="575" as="targetPoint" />
            <Array as="points">
              <mxPoint x="517" y="585" />
              <mxPoint x="580" y="565" />
              <mxPoint x="630" y="525" />
              <mxPoint x="650" y="545" />
            </Array>
          </mxGeometry>
        </mxCell>
        <mxCell id="gHTXFpYsCy3y76UQldaq-48" value="" style="endArrow=none;html=1;rounded=0;fontSize=24;exitX=1;exitY=0.5;exitDx=0;exitDy=0;entryX=0.04;entryY=0.645;entryDx=0;entryDy=0;entryPerimeter=0;" parent="1" source="gHTXFpYsCy3y76UQldaq-42" target="gHTXFpYsCy3y76UQldaq-50" edge="1">
          <mxGeometry width="50" height="50" relative="1" as="geometry">
            <mxPoint x="830" y="590" as="sourcePoint" />
            <mxPoint x="1050" y="600" as="targetPoint" />
          </mxGeometry>
        </mxCell>
        <mxCell id="gHTXFpYsCy3y76UQldaq-49" value="" style="endArrow=none;html=1;rounded=0;fontSize=24;exitX=1;exitY=0.5;exitDx=0;exitDy=0;" parent="1" source="gHTXFpYsCy3y76UQldaq-45" target="gHTXFpYsCy3y76UQldaq-50" edge="1">
          <mxGeometry width="50" height="50" relative="1" as="geometry">
            <mxPoint x="830" y="590" as="sourcePoint" />
            <mxPoint x="1050" y="600" as="targetPoint" />
          </mxGeometry>
        </mxCell>
        <mxCell id="gHTXFpYsCy3y76UQldaq-50" value="&lt;font style=&quot;font-size: 24px;&quot;&gt;5&lt;/font&gt;" style="ellipse;whiteSpace=wrap;html=1;aspect=fixed;labelBackgroundColor=none;fillColor=none;" parent="1" vertex="1">
          <mxGeometry x="1080" y="620" width="80" height="80" as="geometry" />
        </mxCell>
        <mxCell id="gHTXFpYsCy3y76UQldaq-51" value="V" style="text;html=1;align=center;verticalAlign=middle;resizable=0;points=[];autosize=1;strokeColor=none;fillColor=none;fontSize=24;fontStyle=1;rotation=-180;" parent="1" vertex="1">
          <mxGeometry x="640" y="320" width="30" height="30" as="geometry" />
        </mxCell>
        <mxCell id="gHTXFpYsCy3y76UQldaq-52" value="V" style="text;html=1;align=center;verticalAlign=middle;resizable=0;points=[];autosize=1;strokeColor=none;fillColor=none;fontSize=24;fontStyle=1;rotation=-180;" parent="1" vertex="1">
          <mxGeometry x="840" y="396.5" width="30" height="30" as="geometry" />
        </mxCell>
        <mxCell id="gHTXFpYsCy3y76UQldaq-53" value="V" style="text;html=1;align=center;verticalAlign=middle;resizable=0;points=[];autosize=1;strokeColor=none;fillColor=none;fontSize=24;fontStyle=1;rotation=-180;" parent="1" vertex="1">
          <mxGeometry x="520" y="630" width="30" height="30" as="geometry" />
        </mxCell>
        <mxCell id="gHTXFpYsCy3y76UQldaq-54" value="" style="endArrow=none;html=1;rounded=0;fontSize=24;exitX=1;exitY=0.5;exitDx=0;exitDy=0;entryX=0;entryY=0.5;entryDx=0;entryDy=0;" parent="1" source="gHTXFpYsCy3y76UQldaq-36" target="gHTXFpYsCy3y76UQldaq-56" edge="1">
          <mxGeometry width="50" height="50" relative="1" as="geometry">
            <mxPoint x="860" y="500" as="sourcePoint" />
            <mxPoint x="1430" y="320" as="targetPoint" />
          </mxGeometry>
        </mxCell>
        <mxCell id="gHTXFpYsCy3y76UQldaq-55" value="" style="endArrow=none;html=1;rounded=0;fontSize=24;exitX=1;exitY=0.5;exitDx=0;exitDy=0;entryX=0;entryY=0.5;entryDx=0;entryDy=0;" parent="1" source="gHTXFpYsCy3y76UQldaq-50" target="gHTXFpYsCy3y76UQldaq-56" edge="1">
          <mxGeometry width="50" height="50" relative="1" as="geometry">
            <mxPoint x="1080" y="500" as="sourcePoint" />
            <mxPoint x="1430" y="350" as="targetPoint" />
          </mxGeometry>
        </mxCell>
        <mxCell id="gHTXFpYsCy3y76UQldaq-56" value="&lt;span style=&quot;font-size: 24px;&quot;&gt;6&lt;/span&gt;" style="ellipse;whiteSpace=wrap;html=1;aspect=fixed;labelBackgroundColor=none;fillColor=none;" parent="1" vertex="1">
          <mxGeometry x="1520" y="505" width="80" height="80" as="geometry" />
        </mxCell>
        <mxCell id="gHTXFpYsCy3y76UQldaq-57" value="V" style="text;html=1;align=center;verticalAlign=middle;resizable=0;points=[];autosize=1;strokeColor=none;fillColor=none;fontSize=24;fontStyle=1;rotation=-180;" parent="1" vertex="1">
          <mxGeometry x="1420" y="530" width="30" height="30" as="geometry" />
        </mxCell>
        <mxCell id="gHTXFpYsCy3y76UQldaq-58" value="" style="endArrow=none;html=1;rounded=0;fontSize=24;exitX=1.035;exitY=0.415;exitDx=0;exitDy=0;entryX=0;entryY=0.5;entryDx=0;entryDy=0;exitPerimeter=0;" parent="1" source="gHTXFpYsCy3y76UQldaq-56" target="gHTXFpYsCy3y76UQldaq-16" edge="1">
          <mxGeometry width="50" height="50" relative="1" as="geometry">
            <mxPoint x="1110" y="480" as="sourcePoint" />
            <mxPoint x="1670" y="380" as="targetPoint" />
          </mxGeometry>
        </mxCell>
        <mxCell id="gHTXFpYsCy3y76UQldaq-59" value="" style="endArrow=none;html=1;rounded=0;fontSize=24;exitX=1;exitY=1;exitDx=0;exitDy=0;entryX=-0.005;entryY=0.385;entryDx=0;entryDy=0;entryPerimeter=0;jumpStyle=sharp;jumpSize=19;" parent="1" source="gHTXFpYsCy3y76UQldaq-4" target="gHTXFpYsCy3y76UQldaq-62" edge="1">
          <mxGeometry width="50" height="50" relative="1" as="geometry">
            <mxPoint x="640" y="650" as="sourcePoint" />
            <mxPoint x="750" y="820" as="targetPoint" />
          </mxGeometry>
        </mxCell>
        <mxCell id="gHTXFpYsCy3y76UQldaq-60" value="" style="endArrow=none;html=1;rounded=0;fontSize=24;exitX=0.705;exitY=0.99;exitDx=0;exitDy=0;exitPerimeter=0;entryX=-0.02;entryY=0.62;entryDx=0;entryDy=0;entryPerimeter=0;" parent="1" source="gHTXFpYsCy3y76UQldaq-37" target="gHTXFpYsCy3y76UQldaq-62" edge="1">
          <mxGeometry width="50" height="50" relative="1" as="geometry">
            <mxPoint x="448.28427124746213" y="608.2842712474621" as="sourcePoint" />
            <mxPoint x="680" y="820" as="targetPoint" />
          </mxGeometry>
        </mxCell>
        <mxCell id="gHTXFpYsCy3y76UQldaq-61" value="" style="curved=1;endArrow=none;html=1;rounded=0;endFill=0;" parent="1" edge="1">
          <mxGeometry width="50" height="50" relative="1" as="geometry">
            <mxPoint x="450" y="750" as="sourcePoint" />
            <mxPoint x="590" y="790" as="targetPoint" />
            <Array as="points">
              <mxPoint x="457" y="800" />
              <mxPoint x="520" y="780" />
              <mxPoint x="570" y="740" />
              <mxPoint x="590" y="760" />
            </Array>
          </mxGeometry>
        </mxCell>
        <mxCell id="gHTXFpYsCy3y76UQldaq-62" value="&lt;font style=&quot;font-size: 24px;&quot;&gt;7&lt;/font&gt;" style="ellipse;whiteSpace=wrap;html=1;aspect=fixed;labelBackgroundColor=none;fillColor=none;" parent="1" vertex="1">
          <mxGeometry x="700" y="790" width="80" height="80" as="geometry" />
        </mxCell>
        <mxCell id="gHTXFpYsCy3y76UQldaq-63" value="V" style="text;html=1;align=center;verticalAlign=middle;resizable=0;points=[];autosize=1;strokeColor=none;fillColor=none;fontSize=24;fontStyle=1;rotation=-180;" parent="1" vertex="1">
          <mxGeometry x="660" y="800" width="30" height="30" as="geometry" />
        </mxCell>
        <mxCell id="gHTXFpYsCy3y76UQldaq-64" value="" style="endArrow=none;html=1;rounded=0;fontSize=24;exitX=1;exitY=0.5;exitDx=0;exitDy=0;entryX=0;entryY=0.5;entryDx=0;entryDy=0;" parent="1" source="gHTXFpYsCy3y76UQldaq-62" target="gHTXFpYsCy3y76UQldaq-86" edge="1">
          <mxGeometry width="50" height="50" relative="1" as="geometry">
            <mxPoint x="436.4000000000001" y="719.2" as="sourcePoint" />
            <mxPoint x="1060" y="820" as="targetPoint" />
          </mxGeometry>
        </mxCell>
        <mxCell id="gHTXFpYsCy3y76UQldaq-65" value="" style="endArrow=none;html=1;rounded=0;fontSize=24;entryX=0;entryY=0.5;entryDx=0;entryDy=0;exitX=0.942;exitY=0.279;exitDx=0;exitDy=0;exitPerimeter=0;" parent="1" source="gHTXFpYsCy3y76UQldaq-1" target="gHTXFpYsCy3y76UQldaq-13" edge="1">
          <mxGeometry width="50" height="50" relative="1" as="geometry">
            <mxPoint x="840" y="320" as="sourcePoint" />
            <mxPoint x="1530" y="555" as="targetPoint" />
          </mxGeometry>
        </mxCell>
        <mxCell id="gHTXFpYsCy3y76UQldaq-66" value="" style="endArrow=none;html=1;rounded=0;fontSize=24;exitX=1;exitY=1;exitDx=0;exitDy=0;jumpStyle=sharp;jumpSize=25;entryX=0.5;entryY=1;entryDx=0;entryDy=0;" parent="1" source="gHTXFpYsCy3y76UQldaq-2" target="gHTXFpYsCy3y76UQldaq-70" edge="1">
          <mxGeometry width="50" height="50" relative="1" as="geometry">
            <mxPoint x="455.3599999999999" y="262.32000000000005" as="sourcePoint" />
            <mxPoint x="1130" y="330" as="targetPoint" />
          </mxGeometry>
        </mxCell>
        <mxCell id="gHTXFpYsCy3y76UQldaq-67" value="" style="endArrow=none;html=1;rounded=0;fontSize=24;exitX=0.94;exitY=0.72;exitDx=0;exitDy=0;exitPerimeter=0;jumpStyle=sharp;jumpSize=25;entryX=0;entryY=0.5;entryDx=0;entryDy=0;" parent="1" source="gHTXFpYsCy3y76UQldaq-3" target="gHTXFpYsCy3y76UQldaq-75" edge="1">
          <mxGeometry width="50" height="50" relative="1" as="geometry">
            <mxPoint x="448.28427124746213" y="351.71572875253787" as="sourcePoint" />
            <mxPoint x="1480" y="450" as="targetPoint" />
          </mxGeometry>
        </mxCell>
        <mxCell id="gHTXFpYsCy3y76UQldaq-68" value="ORICARE&lt;br&gt;EFECT MASCHEAZA RESTUL EFECTELOR" style="rounded=0;whiteSpace=wrap;html=1;labelBackgroundColor=none;fontSize=24;fillColor=none;" parent="1" vertex="1">
          <mxGeometry x="1837" y="330" width="230" height="200" as="geometry" />
        </mxCell>
        <mxCell id="gHTXFpYsCy3y76UQldaq-69" value="" style="endArrow=none;html=1;rounded=0;fontSize=24;jumpStyle=sharp;jumpSize=19;entryX=0;entryY=0.5;entryDx=0;entryDy=0;" parent="1" source="gHTXFpYsCy3y76UQldaq-1" target="gHTXFpYsCy3y76UQldaq-70" edge="1">
          <mxGeometry width="50" height="50" relative="1" as="geometry">
            <mxPoint x="840" y="290" as="sourcePoint" />
            <mxPoint x="1130" y="300" as="targetPoint" />
            <Array as="points" />
          </mxGeometry>
        </mxCell>
        <mxCell id="gHTXFpYsCy3y76UQldaq-70" value="&lt;span style=&quot;font-size: 24px;&quot;&gt;8&lt;/span&gt;" style="ellipse;whiteSpace=wrap;html=1;aspect=fixed;labelBackgroundColor=none;fillColor=none;" parent="1" vertex="1">
          <mxGeometry x="1150" y="270" width="80" height="80" as="geometry" />
        </mxCell>
        <mxCell id="gHTXFpYsCy3y76UQldaq-71" value="V" style="text;html=1;align=center;verticalAlign=middle;resizable=0;points=[];autosize=1;strokeColor=none;fillColor=none;fontSize=24;fontStyle=1;rotation=-180;" parent="1" vertex="1">
          <mxGeometry x="1105" y="310" width="30" height="30" as="geometry" />
        </mxCell>
        <mxCell id="gHTXFpYsCy3y76UQldaq-72" value="" style="curved=1;endArrow=none;html=1;rounded=0;endFill=0;" parent="1" edge="1">
          <mxGeometry width="50" height="50" relative="1" as="geometry">
            <mxPoint x="909.9999999999998" y="280" as="sourcePoint" />
            <mxPoint x="1049.9999999999998" y="320" as="targetPoint" />
            <Array as="points">
              <mxPoint x="917" y="330" />
              <mxPoint x="990" y="310" />
              <mxPoint x="1030" y="270" />
              <mxPoint x="1050" y="290" />
            </Array>
          </mxGeometry>
        </mxCell>
        <mxCell id="gHTXFpYsCy3y76UQldaq-73" value="" style="endArrow=none;html=1;rounded=0;fontSize=24;jumpStyle=sharp;jumpSize=19;" parent="1" source="gHTXFpYsCy3y76UQldaq-70" target="gHTXFpYsCy3y76UQldaq-14" edge="1">
          <mxGeometry width="50" height="50" relative="1" as="geometry">
            <mxPoint x="1250" y="510" as="sourcePoint" />
            <mxPoint x="1300" y="460" as="targetPoint" />
          </mxGeometry>
        </mxCell>
        <mxCell id="gHTXFpYsCy3y76UQldaq-75" value="&lt;span style=&quot;font-size: 24px;&quot;&gt;9&lt;/span&gt;" style="ellipse;whiteSpace=wrap;html=1;aspect=fixed;labelBackgroundColor=none;fillColor=none;" parent="1" vertex="1">
          <mxGeometry x="1490" y="410" width="80" height="80" as="geometry" />
        </mxCell>
        <mxCell id="gHTXFpYsCy3y76UQldaq-76" value="" style="endArrow=none;html=1;rounded=0;fontSize=24;jumpStyle=sharp;jumpSize=19;entryX=0;entryY=0.5;entryDx=0;entryDy=0;exitX=1;exitY=0.5;exitDx=0;exitDy=0;" parent="1" source="gHTXFpYsCy3y76UQldaq-75" target="gHTXFpYsCy3y76UQldaq-15" edge="1">
          <mxGeometry width="50" height="50" relative="1" as="geometry">
            <mxPoint x="1240" y="510" as="sourcePoint" />
            <mxPoint x="1290" y="460" as="targetPoint" />
          </mxGeometry>
        </mxCell>
        <mxCell id="gHTXFpYsCy3y76UQldaq-83" value="V" style="text;html=1;align=center;verticalAlign=middle;resizable=0;points=[];autosize=1;strokeColor=none;fillColor=none;fontSize=24;fontStyle=1;rotation=-180;" parent="1" vertex="1">
          <mxGeometry x="1440" y="423.5" width="30" height="30" as="geometry" />
        </mxCell>
        <mxCell id="gHTXFpYsCy3y76UQldaq-85" value="" style="endArrow=none;html=1;rounded=0;fontSize=24;exitX=1;exitY=0.5;exitDx=0;exitDy=0;entryX=0;entryY=0;entryDx=0;entryDy=0;jumpStyle=sharp;jumpSize=25;" parent="1" source="gHTXFpYsCy3y76UQldaq-26" target="gHTXFpYsCy3y76UQldaq-75" edge="1">
          <mxGeometry width="50" height="50" relative="1" as="geometry">
            <mxPoint x="916.9999999999893" y="448.5" as="sourcePoint" />
            <mxPoint x="1530" y="555" as="targetPoint" />
          </mxGeometry>
        </mxCell>
        <mxCell id="gHTXFpYsCy3y76UQldaq-86" value="&lt;span style=&quot;font-size: 24px;&quot;&gt;10&lt;/span&gt;" style="ellipse;whiteSpace=wrap;html=1;aspect=fixed;labelBackgroundColor=none;fillColor=none;" parent="1" vertex="1">
          <mxGeometry x="1420" y="690" width="80" height="80" as="geometry" />
        </mxCell>
        <mxCell id="gHTXFpYsCy3y76UQldaq-87" value="" style="endArrow=none;html=1;rounded=0;fontSize=24;exitX=1;exitY=0.5;exitDx=0;exitDy=0;entryX=0;entryY=0.5;entryDx=0;entryDy=0;" parent="1" source="gHTXFpYsCy3y76UQldaq-86" target="gHTXFpYsCy3y76UQldaq-17" edge="1">
          <mxGeometry width="50" height="50" relative="1" as="geometry">
            <mxPoint x="790" y="840" as="sourcePoint" />
            <mxPoint x="1490.0000000000132" y="730" as="targetPoint" />
          </mxGeometry>
        </mxCell>
        <mxCell id="gHTXFpYsCy3y76UQldaq-88" value="V" style="text;html=1;align=center;verticalAlign=middle;resizable=0;points=[];autosize=1;strokeColor=none;fillColor=none;fontSize=24;fontStyle=1;rotation=-180;" parent="1" vertex="1">
          <mxGeometry x="1380" y="700" width="30" height="30" as="geometry" />
        </mxCell>
        <mxCell id="gHTXFpYsCy3y76UQldaq-89" value="" style="endArrow=none;html=1;rounded=0;fontSize=24;exitX=1;exitY=1;exitDx=0;exitDy=0;entryX=0.048;entryY=0.286;entryDx=0;entryDy=0;entryPerimeter=0;" parent="1" source="gHTXFpYsCy3y76UQldaq-36" target="gHTXFpYsCy3y76UQldaq-86" edge="1">
          <mxGeometry width="50" height="50" relative="1" as="geometry">
            <mxPoint x="976.9999999999982" y="435" as="sourcePoint" />
            <mxPoint x="1530" y="555" as="targetPoint" />
          </mxGeometry>
        </mxCell>
      </root>
    </mxGraphModel>
  </diagram>
</mxfile>
